<svg aria-hidden="true" style="position: absolute; width: 0; height: 0; overflow: hidden;" version="1.1" xmlns="http://www.w3.org/2000/svg" xmlns:xlink="http://www.w3.org/1999/xlink">
<defs>

<symbol id="logo" viewBox="0 0 32 32">
<path fill="#ffda44" style="fill: var(--color1, #ffda44)" d="M32 16c0 8.836-7.163 16-16 16s-16-7.164-16-16c0-8.836 7.163-16 16-16s16 7.163 16 16z"></path>
<path fill="#338af3" style="fill: var(--color2, #338af3)" d="M0 16c0-8.836 7.163-16 16-16s16 7.163 16 16h-32z"></path>
</symbol>

<symbol id="log-in" viewBox="0 0 24 24">
<path fill="#ffc531" d="M15 4h4c0.276 0 0.525 0.111 0.707 0.293s0.293 0.431 0.293 0.707v14c0 0.276-0.111 0.525-0.293 0.707s-0.431 0.293-0.707 0.293h-4c-0.552 0-1 0.448-1 1s0.448 1 1 1h4c0.828 0 1.58-0.337 2.121-0.879s0.879-1.293 0.879-2.121v-14c0-0.828-0.337-1.58-0.879-2.121s-1.293-0.879-2.121-0.879h-4c-0.552 0-1 0.448-1 1s0.448 1 1 1zM12.586 11h-9.586c-0.552 0-1 0.448-1 1s0.448 1 1 1h9.586l-3.293 3.293c-0.391 0.391-0.391 1.024 0 1.414s1.024 0.391 1.414 0l5-5c0.096-0.096 0.168-0.206 0.217-0.324s0.076-0.247 0.076-0.383c0-0.13-0.025-0.261-0.076-0.383-0.049-0.118-0.121-0.228-0.217-0.324l-5-5c-0.391-0.391-1.024-0.391-1.414 0s-0.391 1.024 0 1.414z"></path>
</symbol>

<symbol id="log-out" viewBox="0 0 24 24">
<path d="M9 20h-4c-0.276 0-0.525-0.111-0.707-0.293s-0.293-0.431-0.293-0.707v-14c0-0.276 0.111-0.525 0.293-0.707s0.431-0.293 0.707-0.293h4c0.552 0 1-0.448 1-1s-0.448-1-1-1h-4c-0.828 0-1.58 0.337-2.121 0.879s-0.879 1.293-0.879 2.121v14c0 0.828 0.337 1.58 0.879 2.121s1.293 0.879 2.121 0.879h4c0.552 0 1-0.448 1-1s-0.448-1-1-1zM18.586 11h-9.586c-0.552 0-1 0.448-1 1s0.448 1 1 1h9.586l-3.293 3.293c-0.391 0.391-0.391 1.024 0 1.414s1.024 0.391 1.414 0l5-5c0.092-0.092 0.166-0.202 0.217-0.324 0.15-0.362 0.078-0.795-0.217-1.090l-5-5c-0.391-0.391-1.024-0.391-1.414 0s-0.391 1.024 0 1.414z"></path>
</symbol>

<symbol id="eye" viewBox="0 0 24 24">
<path d="M0.106 11.553c-0.136 0.274-0.146 0.603 0 0.894 0 0 0.396 0.789 1.12 1.843 0.451 0.656 1.038 1.432 1.757 2.218 0.894 0.979 2.004 1.987 3.319 2.8 1.595 0.986 3.506 1.692 5.698 1.692s4.103-0.706 5.698-1.692c1.315-0.813 2.425-1.821 3.319-2.8 0.718-0.786 1.306-1.562 1.757-2.218 0.724-1.054 1.12-1.843 1.12-1.843 0.136-0.274 0.146-0.603 0-0.894 0 0-0.396-0.789-1.12-1.843-0.451-0.656-1.038-1.432-1.757-2.218-0.894-0.979-2.004-1.987-3.319-2.8-1.595-0.986-3.506-1.692-5.698-1.692s-4.103 0.706-5.698 1.692c-1.315 0.813-2.425 1.821-3.319 2.8-0.719 0.786-1.306 1.561-1.757 2.218-0.724 1.054-1.12 1.843-1.12 1.843zM2.14 12c0.163-0.281 0.407-0.681 0.734-1.158 0.41-0.596 0.94-1.296 1.585-2.001 0.805-0.881 1.775-1.756 2.894-2.448 1.35-0.834 2.901-1.393 4.647-1.393s3.297 0.559 4.646 1.393c1.119 0.692 2.089 1.567 2.894 2.448 0.644 0.705 1.175 1.405 1.585 2.001 0.328 0.477 0.572 0.876 0.734 1.158-0.163 0.281-0.407 0.681-0.734 1.158-0.41 0.596-0.94 1.296-1.585 2.001-0.805 0.881-1.775 1.756-2.894 2.448-1.349 0.834-2.9 1.393-4.646 1.393s-3.297-0.559-4.646-1.393c-1.119-0.692-2.089-1.567-2.894-2.448-0.644-0.705-1.175-1.405-1.585-2.001-0.328-0.477-0.572-0.877-0.735-1.158zM16 12c0-1.104-0.449-2.106-1.172-2.828s-1.724-1.172-2.828-1.172-2.106 0.449-2.828 1.172-1.172 1.724-1.172 2.828 0.449 2.106 1.172 2.828 1.724 1.172 2.828 1.172 2.106-0.449 2.828-1.172 1.172-1.724 1.172-2.828zM14 12c0 0.553-0.223 1.051-0.586 1.414s-0.861 0.586-1.414 0.586-1.051-0.223-1.414-0.586-0.586-0.861-0.586-1.414 0.223-1.051 0.586-1.414 0.861-0.586 1.414-0.586 1.051 0.223 1.414 0.586 0.586 0.861 0.586 1.414z"></path>
</symbol>

<symbol id="eye-off" viewBox="0 0 24 24">
<path d="M10.128 5.214c0.651-0.152 1.296-0.221 1.86-0.214 1.758 0 3.309 0.559 4.658 1.393 1.119 0.692 2.089 1.567 2.894 2.448 0.644 0.705 1.175 1.405 1.585 2.001 0.327 0.475 0.57 0.874 0.733 1.155-0.546 0.953-1.16 1.821-1.778 2.542-0.359 0.419-0.311 1.051 0.108 1.41s1.051 0.311 1.41-0.108c0.818-0.954 1.611-2.112 2.283-3.37 0.148-0.279 0.163-0.618 0.013-0.919 0 0-0.396-0.789-1.12-1.843-0.451-0.656-1.038-1.432-1.757-2.218-0.894-0.979-2.004-1.987-3.319-2.8-1.595-0.985-3.506-1.691-5.686-1.691-0.734-0.009-1.54 0.079-2.34 0.266-0.538 0.126-0.872 0.664-0.746 1.202s0.664 0.872 1.202 0.746zM10.027 11.442l2.531 2.531c-0.182 0.061-0.372 0.094-0.563 0.101-0.513 0.018-1.030-0.159-1.434-0.536s-0.617-0.88-0.635-1.393c-0.008-0.238 0.025-0.476 0.101-0.704zM5.983 7.397l2.553 2.553c-0.434 0.691-0.636 1.484-0.608 2.266 0.036 1.022 0.463 2.033 1.271 2.785s1.846 1.107 2.868 1.071c0.692-0.024 1.379-0.228 1.984-0.608l2.322 2.322c-1.378 0.799-2.895 1.196-4.384 1.214-1.734 0-3.285-0.559-4.634-1.393-1.119-0.692-2.089-1.567-2.894-2.448-0.644-0.705-1.175-1.405-1.585-2.001-0.326-0.475-0.57-0.873-0.732-1.154 1.050-1.822 2.376-3.379 3.841-4.607zM0.293 1.707l4.271 4.271c-1.731 1.479-3.269 3.358-4.445 5.549-0.148 0.279-0.164 0.619-0.013 0.92 0 0 0.396 0.789 1.12 1.843 0.451 0.656 1.038 1.432 1.757 2.218 0.894 0.979 2.004 1.987 3.319 2.8 1.595 0.986 3.506 1.692 5.71 1.692 1.993-0.024 4.019-0.601 5.815-1.759l4.466 4.466c0.391 0.391 1.024 0.391 1.414 0s0.391-1.024 0-1.414l-8.876-8.876c-0.002-0.002-0.005-0.005-0.007-0.007l-4.209-4.21c-0.008-0.007-0.016-0.016-0.024-0.024l-8.884-8.883c-0.391-0.391-1.024-0.391-1.414 0s-0.391 1.024 0 1.414z"></path>
</symbol>

<symbol id="book-open" viewBox="0 0 24 24">
<path d="M21 4v13h-6c-0.728 0-1.412 0.195-2 0.535v-10.535c0-0.829 0.335-1.577 0.879-2.121s1.292-0.879 2.121-0.879zM11 17.535c-0.588-0.34-1.272-0.535-2-0.535h-6v-13h5c0.829 0 1.577 0.335 2.121 0.879s0.879 1.292 0.879 2.121zM22 2h-6c-1.38 0-2.632 0.561-3.536 1.464-0.167 0.167-0.322 0.346-0.464 0.536-0.142-0.19-0.297-0.369-0.464-0.536-0.904-0.903-2.156-1.464-3.536-1.464h-6c-0.552 0-1 0.448-1 1v15c0 0.552 0.448 1 1 1h7c0.553 0 1.051 0.223 1.414 0.586s0.586 0.861 0.586 1.414c0 0.552 0.448 1 1 1s1-0.448 1-1c0-0.553 0.223-1.051 0.586-1.414s0.861-0.586 1.414-0.586h7c0.552 0 1-0.448 1-1v-15c0-0.552-0.448-1-1-1z"></path>
</symbol>

<symbol id="star" viewBox="0 0 20 20">
<path fill="#ffc531" stroke="#ffc531" d="M10 15l-5.878 3.090 1.123-6.545-4.756-4.635 6.572-0.955 2.939-5.955 2.939 5.955 6.572 0.955-4.756 4.635 1.123 6.545z"></path>
</symbol>

<symbol id="heart" viewBox="0 0 32 32">
<path fill="none" stroke-linejoin="round" stroke-linecap="round" stroke-miterlimit="4" stroke-width="2.6667" d="M27.787 6.147c-0.681-0.681-1.49-1.222-2.38-1.591s-1.844-0.559-2.807-0.559c-0.963 0-1.917 0.19-2.807 0.559s-1.698 0.909-2.38 1.591l-1.413 1.413-1.413-1.413c-1.376-1.376-3.241-2.148-5.187-2.148s-3.811 0.773-5.187 2.148c-1.376 1.376-2.148 3.241-2.148 5.187s0.773 3.811 2.148 5.187l11.787 11.787 11.787-11.787c0.681-0.681 1.222-1.49 1.591-2.38s0.559-1.844 0.559-2.807c0-0.963-0.19-1.917-0.559-2.807s-0.909-1.699-1.591-2.38z"></path>
</symbol>

<symbol id="fullheart" viewBox="0 0 35 32">
<path fill="#f4c550" style="fill: var(--color5, #f4c550); stroke: var(--color5, #f4c550)" stroke="#f4c550" stroke-linejoin="round" stroke-linecap="round" stroke-miterlimit="4" stroke-width="1.4545" d="M31.384 4.355c-0.805-0.805-1.76-1.444-2.812-1.88s-2.179-0.66-3.318-0.66-2.266 0.224-3.318 0.66c-1.052 0.436-2.007 1.075-2.812 1.88l-1.67 1.67-1.67-1.67c-1.626-1.626-3.831-2.539-6.13-2.539s-4.504 0.913-6.13 2.539c-1.626 1.626-2.539 3.831-2.539 6.13s0.913 4.504 2.539 6.13l13.93 13.93 13.93-13.93c0.805-0.805 1.444-1.76 1.88-2.812s0.66-2.179 0.66-3.318-0.224-2.266-0.66-3.318c-0.436-1.052-1.075-2.007-1.88-2.812z"></path>
</symbol>

<symbol id="x" viewBox="0 0 32 32">
<path stroke-linejoin="round" stroke-linecap="round" stroke-miterlimit="4" stroke-width="2.5" d="M24 8l-16 16"></path>
<path stroke-linejoin="round" stroke-linecap="round" stroke-miterlimit="4" stroke-width="2.5" d="M8 8l16 16"></path>
</symbol>

<symbol id="ellipse" viewBox="0 0 32 32">
<path fill="#fff" style="fill: var(--color1, #fff)" d="M32 16c0 8.837-7.163 16-16 16s-16-7.163-16-16c0-8.837 7.163-16 16-16s16 7.163 16 16z"></path>
<path fill="#38cd3e" style="fill: var(--color2, #38cd3e)" d="M26.667 16c0 5.891-4.776 10.667-10.667 10.667s-10.667-4.776-10.667-10.667c0-5.891 4.776-10.667 10.667-10.667s10.667 4.776 10.667 10.667z"></path>
</symbol>

<symbol id="user" viewBox="0 0 24 24">
<path fill="#38cd3e" d="M17 21v-2c0-1.38-0.561-2.632-1.464-3.536s-2.156-1.464-3.536-1.464h-7c-1.38 0-2.632 0.561-3.536 1.464s-1.464 2.156-1.464 3.536v2c0 0.552 0.448 1 1 1s1-0.448 1-1v-2c0-0.829 0.335-1.577 0.879-2.121s1.292-0.879 2.121-0.879h7c0.829 0 1.577 0.335 2.121 0.879s0.879 1.292 0.879 2.121v2c0 0.552 0.448 1 1 1s1-0.448 1-1zM13.5 7c0-1.38-0.561-2.632-1.464-3.536s-2.156-1.464-3.536-1.464-2.632 0.561-3.536 1.464-1.464 2.156-1.464 3.536 0.561 2.632 1.464 3.536 2.156 1.464 3.536 1.464 2.632-0.561 3.536-1.464 1.464-2.156 1.464-3.536zM11.5 7c0 0.829-0.335 1.577-0.879 2.121s-1.292 0.879-2.121 0.879-1.577-0.335-2.121-0.879-0.879-1.292-0.879-2.121 0.335-1.577 0.879-2.121 1.292-0.879 2.121-0.879 1.577 0.335 2.121 0.879 0.879 1.292 0.879 2.121zM16.293 11.707l2 2c0.391 0.391 1.024 0.391 1.414 0l4-4c0.391-0.391 0.391-1.024 0-1.414s-1.024-0.391-1.414 0l-3.293 3.293-1.293-1.293c-0.391-0.391-1.024-0.391-1.414 0s-0.391 1.024 0 1.414z"></path>
</symbol>

<symbol id="menu" viewBox="0 0 24 24">
<path d="M3 13h18c0.552 0 1-0.448 1-1s-0.448-1-1-1h-18c-0.552 0-1 0.448-1 1s0.448 1 1 1zM3 7h18c0.552 0 1-0.448 1-1s-0.448-1-1-1h-18c-0.552 0-1 0.448-1 1s0.448 1 1 1zM3 19h18c0.552 0 1-0.448 1-1s-0.448-1-1-1h-18c-0.552 0-1 0.448-1 1s0.448 1 1 1z"></path>
</symbol>

<symbol id="heart-click" viewBox="0 0 32 32">
<path fill="#338af3" stroke="#ffc531" d="M32 21.263l-5.074-3.736c1.558-2.576 2.527-5.581 2.224-8.975-0.858-9.589-12.655-6.767-14.547-1.311-1.892-5.457-13.687-8.278-14.546 1.311-1.105 12.336 14.546 19.564 14.546 19.564s1.91-0.884 4.346-2.555l0.339 3.042 3.596-4.184 3.084 5.34 3.693-2.132-3.083-5.341 5.423-1.023zM28.065 27.201l-1.669 0.965-3.323-5.756-2.921 3.397-1.437-12.876 10.433 7.684-4.405 0.83 3.322 5.757z"></path>
</symbol>

<symbol id="heart-icon" viewBox="0 0 32 32">
<path fill="#000"  d="M16 10.465c-1.034-1.4-2.671-2.25-4.428-2.25-3.046 0-5.525 2.497-5.525 5.571-0.009 5.050 6.66 11.371 9.953 11.371 3.284 0 9.962-6.312 9.962-11.362 0-3.083-2.479-5.571-5.525-5.571-1.775-0.009-3.403 0.842-4.437 2.241z"></path>
<path fill="#338af3"  d="M24.846 32h-17.702c-3.943 0-7.145-3.202-7.145-7.154v-17.702c0-3.943 3.202-7.145 7.145-7.145h17.702c3.952 0 7.145 3.202 7.145 7.145v17.702c0.009 3.952-3.193 7.154-7.145 7.154z"></path>
<path fill="#ffc531"  d="M16 10.52c-1.034-1.4-2.671-2.25-4.428-2.25-3.046 0-5.525 2.497-5.525 5.571 0 5.050 6.669 11.362 9.962 11.362 3.284 0 9.962-6.312 9.962-11.362 0-3.083-2.479-5.571-5.525-5.571-1.784 0-3.412 0.851-4.446 2.25z"></path>
</symbol>

</defs>
</svg>